<svg xmlns="http://www.w3.org/2000/svg" viewBox="0 0 64 64" role="img" aria-label="DocSlime blue anime slime">
  <defs>
    <linearGradient id="slime-body" x1="14" y1="12" x2="50" y2="56" gradientUnits="userSpaceOnUse">
      <stop offset="0" stop-color="#8eeeff" />
      <stop offset="0.45" stop-color="#38b8ff" />
      <stop offset="1" stop-color="#1267d8" />
    </linearGradient>
    <radialGradient id="slime-shine" cx="0" cy="0" r="1" gradientUnits="userSpaceOnUse" gradientTransform="translate(24 23) rotate(35) scale(17 8)">
      <stop offset="0" stop-color="#ffffff" stop-opacity="0.92" />
      <stop offset="1" stop-color="#ffffff" stop-opacity="0" />
    </radialGradient>
  </defs>
  <path d="M32 13c15 0 27 10 27 23 0 14-12 22-27 22S5 50 5 36c0-13 12-23 27-23Z" fill="#08458f" opacity="0.22" />
  <path d="M32 12c14 0 25 10 25 23 0 14-11 22-25 22S7 49 7 35c0-13 11-23 25-23Z" fill="url(#slime-body)" stroke="#083b80" stroke-width="3" />
  <path d="M17 25c5-6 16-9 30-4-9-2-20-1-30 4Z" fill="#d9fbff" opacity="0.55" />
  <ellipse cx="25" cy="24" rx="12" ry="6.5" fill="url(#slime-shine)" />
  <circle cx="24" cy="34" r="3.4" fill="#062c62" />
  <circle cx="40" cy="34" r="3.4" fill="#062c62" />
  <circle cx="23" cy="33" r="1.1" fill="#ffffff" />
  <circle cx="39" cy="33" r="1.1" fill="#ffffff" />
  <path d="M25 43c4 3.6 10 3.6 14 0" fill="none" stroke="#062c62" stroke-width="3.4" stroke-linecap="round" />
  <circle cx="17" cy="40" r="2.4" fill="#ff86b5" opacity="0.74" />
  <circle cx="47" cy="40" r="2.4" fill="#ff86b5" opacity="0.74" />
</svg>
